<svg width="32" height="32" viewBox="0 0 32 32" fill="none" xmlns="http://www.w3.org/2000/svg">
<mask id="mask0_706_10" style="mask-type:luminance" maskUnits="userSpaceOnUse" x="9" y="3" width="14" height="26">
<path d="M22.813 3.15259H9.18652V28.8473H22.813V3.15259Z" fill="white"/>
</mask>
<g mask="url(#mask0_706_10)">
<path d="M22.6428 12.9042C22.4641 14.3365 22.253 15.7045 22.0744 17.1184C22.0468 17.4139 21.9425 17.5249 21.637 17.5199C20.7064 17.504 19.7757 17.514 18.8451 17.5148C18.3151 17.5148 18.3143 17.5148 18.3151 18.0665C18.3151 21.4558 18.3151 24.8447 18.3151 28.2334C18.3151 28.8419 18.3151 28.8427 17.6883 28.8435H13.8965C13.263 28.8435 13.2613 28.8435 13.2621 28.1892C13.2621 24.8139 13.2652 21.4388 13.2713 18.064C13.2713 17.5148 13.2713 17.514 12.7288 17.514C11.6872 17.514 10.6422 17.5057 9.60387 17.5207C9.30005 17.5249 9.17986 17.4305 9.18654 17.1209C9.19711 15.8316 9.19711 14.5418 9.18654 13.2515C9.18654 12.9368 9.31174 12.8525 9.61054 12.8567C10.6655 12.8717 11.7222 12.8441 12.7772 12.8725C13.1945 12.8834 13.2872 12.7381 13.2855 12.3492C13.2855 11.0305 13.2772 9.71004 13.3423 8.3938C13.3993 7.16084 13.8737 5.98387 14.6877 5.05602C15.5016 4.12816 16.6068 3.50452 17.8218 3.28741C19.2098 3.08701 20.6222 3.13107 21.9951 3.41762C22.8089 3.54615 22.8047 3.57119 22.8055 4.38665C22.8055 5.28974 22.7988 6.19199 22.8105 7.09508C22.8105 7.3822 22.7271 7.4665 22.4241 7.46066C21.6621 7.43458 20.8992 7.45492 20.1396 7.52159C19.6135 7.58258 19.1311 7.8439 18.7925 8.25128C18.454 8.65866 18.2854 9.18078 18.3218 9.7092C18.2876 10.6524 18.3218 11.598 18.3043 12.542C18.2992 12.8533 18.4653 12.8667 18.6982 12.8658C19.8926 12.8608 21.087 12.8658 22.2814 12.8658C22.3882 12.8658 22.495 12.8875 22.6386 12.9034" fill="#333333"/>
</g>
</svg>
