<svg width="32" height="32" viewBox="0 0 32 32" fill="none" xmlns="http://www.w3.org/2000/svg">
<path d="M29 16.0791C28.9947 13.5959 28.2784 11.1662 26.9357 9.07731C25.593 6.98844 23.6801 5.32782 21.4233 4.29189C19.1665 3.25596 16.6602 2.88806 14.2009 3.23171C11.7416 3.57536 9.4322 4.61618 7.54581 6.23105C5.65943 7.84593 4.27503 9.9673 3.55635 12.3442C2.83768 14.7211 2.8148 17.2542 3.49044 19.6437C4.16607 22.0332 5.51195 24.1792 7.36886 25.8279C9.22577 27.4766 11.516 28.5589 13.9687 28.9469V19.8445H10.668V16.0791H13.9688V13.2093C13.9688 9.94466 15.9096 8.14137 18.879 8.14137C19.854 8.15496 20.8266 8.23999 21.789 8.39578V11.6014H20.1498C19.8701 11.5646 19.5858 11.5912 19.3179 11.6791C19.0499 11.7671 18.8051 11.9141 18.6017 12.1095C18.3983 12.3048 18.2414 12.5434 18.1426 12.8076C18.0439 13.0718 18.0058 13.3548 18.0312 13.6356V16.0791H21.6367L21.0603 19.8445H18.0312V28.9469C21.0918 28.4584 23.8777 26.8942 25.8883 24.5355C27.8988 22.1769 29.0022 19.1784 29 16.0791" fill="white"/>
</svg>
