<svg width="32" height="32" viewBox="0 0 32 32" fill="none" xmlns="http://www.w3.org/2000/svg">
<path d="M16 6.16216C19.2041 6.16216 19.5837 6.17438 20.849 6.23211C21.6099 6.24114 22.3637 6.38091 23.0772 6.64531C23.5948 6.84495 24.0648 7.15072 24.457 7.54296C24.8493 7.9352 25.155 8.4052 25.3547 8.92274C25.6191 9.63632 25.7588 10.39 25.7679 11.151C25.8256 12.4163 25.8378 12.7959 25.8378 16C25.8378 19.2041 25.8256 19.5836 25.7679 20.849C25.7588 21.6099 25.6191 22.3636 25.3547 23.0772C25.155 23.5947 24.8493 24.0647 24.457 24.457C24.0648 24.8492 23.5948 25.155 23.0772 25.3546C22.3637 25.619 21.6099 25.7588 20.849 25.7678C19.5838 25.8256 19.2043 25.8378 16 25.8378C12.7957 25.8378 12.4162 25.8256 11.151 25.7678C10.3901 25.7588 9.63634 25.619 8.92276 25.3546C8.40522 25.155 7.93522 24.8492 7.54298 24.457C7.15074 24.0647 6.84497 23.5947 6.64533 23.0772C6.38093 22.3636 6.24116 21.6099 6.23213 20.849C6.1744 19.5836 6.16218 19.2041 6.16218 16C6.16218 12.7959 6.1744 12.4163 6.23213 11.151C6.24116 10.39 6.38093 9.63632 6.64533 8.92274C6.84497 8.40521 7.15074 7.9352 7.54297 7.54296C7.9352 7.15073 8.40521 6.84495 8.92274 6.64531C9.63632 6.38091 10.39 6.24114 11.151 6.23211C12.4163 6.17438 12.7959 6.16216 16 6.16216ZM16 4C12.741 4 12.3323 4.0138 11.0524 4.0722C10.0569 4.09215 9.07198 4.28075 8.13953 4.63C7.34239 4.9383 6.61844 5.40973 6.01409 6.01409C5.40973 6.61844 4.9383 7.34239 4.63 8.13953C4.28076 9.07198 4.09215 10.0569 4.07221 11.0524C4.0138 12.3323 4 12.741 4 16C4 19.259 4.0138 19.6677 4.0722 20.9476C4.09215 21.9431 4.28075 22.928 4.63 23.8605C4.9383 24.6576 5.40973 25.3816 6.01409 25.9859C6.61844 26.5903 7.34239 27.0617 8.13953 27.37C9.07198 27.7192 10.0569 27.9078 11.0524 27.9278C12.3323 27.9862 12.741 28 16 28C19.259 28 19.6677 27.9862 20.9476 27.9278C21.9431 27.9079 22.928 27.7192 23.8605 27.37C24.6576 27.0617 25.3816 26.5903 25.9859 25.9859C26.5903 25.3816 27.0617 24.6576 27.37 23.8605C27.7192 22.928 27.9078 21.9431 27.9278 20.9476C27.9862 19.6677 28 19.259 28 16C28 12.741 27.9862 12.3323 27.9278 11.0524C27.9079 10.0569 27.7192 9.07198 27.37 8.13953C27.0617 7.34239 26.5903 6.61844 25.9859 6.01409C25.3816 5.40973 24.6576 4.9383 23.8605 4.63C22.928 4.28076 21.9431 4.09215 20.9476 4.07221C19.6677 4.0138 19.259 4 16 4ZM22.4056 8.15437C22.1208 8.15437 21.8424 8.23882 21.6056 8.39705C21.3688 8.55528 21.1842 8.78018 21.0752 9.04331C20.9663 9.30643 20.9377 9.59597 20.9933 9.8753C21.0489 10.1546 21.186 10.4112 21.3874 10.6126C21.5888 10.814 21.8454 10.9511 22.1247 11.0067C22.404 11.0623 22.6936 11.0337 22.9567 10.9248C23.2198 10.8158 23.4447 10.6312 23.6029 10.3944C23.7612 10.1576 23.8456 9.87917 23.8456 9.59437C23.8456 9.40527 23.8084 9.21801 23.736 9.04331C23.6637 8.8686 23.5576 8.70985 23.4239 8.57614C23.2901 8.44242 23.1314 8.33635 22.9567 8.26398C22.782 8.19162 22.5947 8.15437 22.4056 8.15437Z" fill="white"/>
<circle cx="16" cy="16" r="5" stroke="white" stroke-width="2.3"/>
</svg>
