<svg width="32" height="32" viewBox="0 0 32 32" fill="none" xmlns="http://www.w3.org/2000/svg">
<path d="M17.525 13.9507C17.8597 13.575 18.1688 13.178 18.5291 12.8348C19.3742 12.0411 20.4719 11.5704 21.6294 11.5053C22.7995 11.379 23.982 11.5726 25.0507 12.0654C25.7393 12.4029 26.3503 12.8797 26.8449 13.4657C27.3395 14.0518 27.7069 14.7342 27.9239 15.4697C28.2388 16.4237 28.3954 17.4228 28.3875 18.4274C28.3875 21.4767 28.3892 24.5263 28.3926 27.5762C28.3926 27.7982 28.3269 27.8572 28.11 27.8555C26.5133 27.8469 24.9164 27.8469 23.3191 27.8555C23.0852 27.8555 23.0229 27.7846 23.0237 27.5583C23.0305 24.8585 23.0237 22.1587 23.0288 19.4597C23.0507 18.8286 22.98 18.1977 22.8188 17.5872C22.7272 17.136 22.5022 16.7227 22.1731 16.4008C21.844 16.0788 21.4259 15.863 20.9728 15.7813C20.4834 15.6697 19.9727 15.695 19.4967 15.8545C19.0208 16.014 18.5979 16.3015 18.2747 16.6856C17.7745 17.2493 17.5058 17.9813 17.5224 18.7348C17.5287 21.6623 17.5287 24.5901 17.5224 27.5182C17.5224 27.852 17.5224 27.852 17.1886 27.8529H12.4686C12.1603 27.8529 12.1586 27.8529 12.1595 27.5361C12.1709 22.8594 12.1823 18.1826 12.1937 13.5059C12.1937 13.0346 12.1783 12.5666 12.1603 12.0928C12.1535 11.922 12.2022 11.8511 12.3892 11.8511C14.024 11.8574 15.6588 11.8574 17.2936 11.8511C17.4755 11.8511 17.5301 11.9109 17.5276 12.0885C17.519 12.7118 17.5276 13.3351 17.5276 13.9524" fill="#333333"/>
<path d="M9.30337 19.8474C9.30337 22.4089 9.30337 24.9704 9.30337 27.5319C9.30337 27.8478 9.30337 27.8487 8.99343 27.8487C7.39675 27.8487 5.80008 27.8487 4.20426 27.8487C3.99848 27.8487 3.93188 27.7957 3.93188 27.5823C3.93758 22.4205 3.93758 17.2585 3.93188 12.0962C3.93188 11.8896 4.00019 11.8401 4.19487 11.8401C5.80634 11.8469 7.4181 11.8469 9.03014 11.8401C9.26153 11.8401 9.30764 11.9255 9.30679 12.1321C9.30166 14.7016 9.30166 17.2713 9.30679 19.8414" fill="#333333"/>
<path d="M6.63331 4.14786C7.13154 4.12318 7.62775 4.2268 8.07446 4.4488C8.52116 4.67081 8.9034 5.00377 9.18458 5.4158C9.44861 5.80278 9.60925 6.25087 9.65121 6.71746C9.69317 7.18405 9.61506 7.65362 9.42431 8.08149C9.23357 8.50937 8.93652 8.88133 8.56143 9.162C8.18635 9.44267 7.74569 9.6227 7.28138 9.68498C6.85378 9.78212 6.41076 9.79018 5.97991 9.70865C5.54907 9.62712 5.13962 9.45776 4.77707 9.21111C4.3279 8.91019 3.98202 8.47854 3.78624 7.97458C3.59046 7.47062 3.55423 6.91867 3.68245 6.39344C3.77183 5.87966 4.01365 5.40462 4.3765 5.03004C4.73935 4.65547 5.20646 4.39867 5.71715 4.29301C6.01995 4.22738 6.32648 4.18033 6.63502 4.15212" fill="#333333"/>
</svg>
