<svg width="32" height="32" viewBox="0 0 32 32" fill="none" xmlns="http://www.w3.org/2000/svg">
<path d="M26.2236 4H5.77136C5.30713 3.99474 4.8598 4.17397 4.52764 4.49832C4.19549 4.82267 4.00566 5.26561 3.99988 5.72983V26.2682C4.00546 26.7327 4.19515 27.1759 4.5273 27.5006C4.85945 27.8253 5.30689 28.0049 5.77136 28H26.2236C26.6887 28.0054 27.1369 27.8261 27.47 27.5014C27.803 27.1768 27.9937 26.7333 28.0002 26.2682V5.72983C27.9935 5.26501 27.8027 4.82182 27.4697 4.49752C27.1366 4.17321 26.6885 3.99429 26.2236 4ZM11.118 24.4512H7.55814V12.9977H11.118V24.4512ZM9.3389 11.432C8.93068 11.4322 8.53157 11.3114 8.19204 11.0847C7.85251 10.8581 7.58781 10.5359 7.43142 10.1588C7.27503 9.78175 7.23397 9.36678 7.31343 8.96637C7.39289 8.56597 7.58931 8.19812 7.87784 7.90934C8.16637 7.62057 8.53405 7.42385 8.93439 7.34405C9.33473 7.26426 9.74974 7.30498 10.1269 7.46105C10.5041 7.61713 10.8266 7.88156 11.0535 8.2209C11.2804 8.56025 11.4016 8.95925 11.4017 9.36747C11.4017 9.91473 11.1845 10.4396 10.7977 10.8267C10.4108 11.2139 9.88615 11.4316 9.3389 11.432ZM24.4509 24.4512H20.8936V18.8813C20.8936 17.5526 20.8692 15.8441 19.0438 15.8441C17.1915 15.8441 16.9078 17.2911 16.9078 18.7851V24.4512H13.3506V12.9977H16.7653V14.5626H16.8127C17.1542 13.9784 17.6478 13.4977 18.2409 13.172C18.8341 12.8462 19.5045 12.6874 20.1807 12.7126C23.7853 12.7126 24.4509 15.0849 24.4509 18.1686L24.4509 24.4512Z" fill="white"/>
</svg>
