<svg width="113" height="98" viewBox="0 0 113 98" fill="none" xmlns="http://www.w3.org/2000/svg">
  <g clip-path="url(#clip0_612_2)">
    <path
      d="M2.95532 38.0098C4.20937 55.889 19.7199 69.3663 37.5991 68.1122C55.4783 66.8582 68.9556 51.3476 67.7016 33.4685C66.4475 15.5893 50.937 2.11195 33.0578 3.366C15.1786 4.62005 1.70127 20.1306 2.95532 38.0098Z"
      fill="white" />
    <path
      d="M2.41638 38.0335C1.97004 31.6631 3.38192 25.3 6.48076 19.7161C9.5796 14.1323 14.2322 9.56775 19.8742 6.57611C25.5162 3.58446 31.9051 2.2943 38.2659 2.86221C44.6267 3.43011 50.686 5.83165 55.7087 9.77547V9.77547C60.0374 13.1685 63.4496 17.5895 65.6352 22.6366C67.8208 27.6837 68.7107 33.197 68.2238 38.6755C67.7369 44.1539 65.8888 49.4238 62.8474 54.0063C59.806 58.5889 55.6676 62.3389 50.8085 64.9155C45.9493 67.492 40.5233 68.8135 35.0235 68.7598C29.5238 68.7062 24.1246 67.2791 19.3166 64.6082C14.5086 61.9374 10.4442 58.1075 7.49273 53.4664C4.54127 48.8254 2.79629 43.5204 2.41638 38.0335V38.0335ZM67.1523 33.5451C67.1144 33.0048 67.0628 32.4646 66.9975 31.9243C66.5076 27.7624 65.1971 23.7391 63.1418 20.0872C61.0865 16.4352 58.3273 13.2272 55.0238 10.6489V10.6489C49.274 6.13666 42.1489 3.7361 34.8409 3.84899C27.5328 3.96188 20.4852 6.58138 14.8776 11.2691C9.26988 15.9568 5.44233 22.4282 4.03548 29.6004C2.62863 36.7727 3.72785 44.2105 7.14914 50.6692C10.5704 57.128 16.1062 62.2158 22.8301 65.0811C29.554 67.9463 37.058 68.4153 44.0863 66.4095C51.1146 64.4037 57.2408 60.0449 61.4396 54.0624C65.6385 48.0799 67.6552 40.8367 67.1523 33.5451V33.5451Z"
      fill="#FFB400" />
    <path d="M81.4031 71.1988L61.2012 55.3375L60.516 56.2102L80.7179 72.0715L81.4031 71.1988Z" fill="#FFB400" />
    <path
      d="M85.865 68.2919C83.4355 66.3862 79.9212 66.8108 78.0155 69.2402C76.1098 71.6696 76.5344 75.184 78.9638 77.0897L101.184 94.5198C103.614 96.4255 107.128 96.0009 109.034 93.5715C110.94 91.1421 110.515 87.6277 108.085 85.722L85.865 68.2919Z"
      fill="#FFB400" />
  </g>
  <defs>
    <clipPath id="clip0_612_2">
      <rect width="112.288" height="97.432" fill="white" />
    </clipPath>
  </defs>
</svg>