<svg width="109" height="139" viewBox="0 0 109 139" fill="none" xmlns="http://www.w3.org/2000/svg">
<g clip-path="url(#clip0_611_2)">
<path d="M86.273 10.9441H1V119.769H86.273V10.9441Z" stroke="#FFB400" stroke-width="2" stroke-miterlimit="10"/>
<path d="M9.93298 27.998H57.984" stroke="#FFB400" stroke-width="2" stroke-miterlimit="10" stroke-linecap="round"/>
<path d="M9.93298 45.053H62.721" stroke="#FFB400" stroke-width="2" stroke-miterlimit="10" stroke-linecap="round"/>
<path d="M9.93298 62.1079H43.636" stroke="#FFB400" stroke-width="2" stroke-miterlimit="10" stroke-linecap="round"/>
<path d="M9.93298 79.1621H59.195" stroke="#FFB400" stroke-width="2" stroke-miterlimit="10" stroke-linecap="round"/>
<path d="M9.93298 96.217H43.636" stroke="#FFB400" stroke-width="2" stroke-miterlimit="10" stroke-linecap="round"/>
<path d="M83.154 137.636C96.3856 137.636 107.112 126.91 107.112 113.678C107.112 100.446 96.3856 89.72 83.154 89.72C69.9223 89.72 59.196 100.446 59.196 113.678C59.196 126.91 69.9223 137.636 83.154 137.636Z" fill="white" stroke="#FFB400" stroke-width="2" stroke-miterlimit="10" stroke-linecap="round"/>
<path d="M68.497 116.159L78.243 123.739L96.6511 105.331" stroke="#FFB400" stroke-width="2" stroke-miterlimit="10" stroke-linecap="round"/>
<path d="M9.93298 1H96.65V93.883" stroke="#FFB400" stroke-width="2" stroke-miterlimit="10" stroke-linecap="round"/>
</g>
<defs>
<clipPath id="clip0_611_2">
<rect width="108.111" height="138.636" fill="white"/>
</clipPath>
</defs>
</svg>
