<svg width="32" height="32" viewBox="0 0 32 32" fill="none" xmlns="http://www.w3.org/2000/svg">
<path d="M26.3286 10.2043C26.3391 10.4332 26.3391 10.6621 26.3391 10.891C26.3387 13.6127 25.6066 16.2843 24.2194 18.6261C22.8323 20.9678 20.8412 22.8936 18.4544 24.2019C16.0677 25.5101 13.3732 26.1527 10.6529 26.0623C7.93268 25.9719 5.28674 25.1519 2.99213 23.6881C3.41331 23.7386 3.83722 23.7629 4.26142 23.7609C6.66495 23.7639 8.9995 22.9577 10.8889 21.472C9.77556 21.4519 8.69642 21.084 7.80271 20.4198C6.909 19.7556 6.24553 18.8284 5.90529 17.7681C6.70317 17.9192 7.52493 17.8871 8.30865 17.6745C7.10226 17.428 6.01792 16.7727 5.23883 15.8192C4.45974 14.8657 4.03365 13.6725 4.03255 12.4412V12.3683C4.77379 12.7765 5.60063 13.0046 6.44629 13.0342C5.31832 12.2774 4.51999 11.1204 4.21287 9.79724C3.90574 8.47408 4.11277 7.08367 4.79204 5.90738C6.13168 7.55596 7.80304 8.90438 9.69762 9.86511C11.5922 10.8258 13.6677 11.3774 15.7892 11.484C15.702 11.084 15.6567 10.6761 15.654 10.2667C15.6538 9.19668 15.9753 8.15128 16.5768 7.26626C17.1782 6.38124 18.0319 5.69748 19.0268 5.30374C20.0218 4.91001 21.1122 4.82449 22.1564 5.05829C23.2006 5.29209 24.1504 5.83441 24.8825 6.61484C26.0787 6.38274 27.2261 5.94633 28.2743 5.32474C27.8742 6.56194 27.0387 7.61187 25.9229 8.27951C26.9819 8.15156 28.0162 7.86757 28.9921 7.43677C28.2756 8.51009 27.3737 9.44723 26.3286 10.2043V10.2043Z" fill="white"/>
</svg>
