<svg width="128" height="129" viewBox="0 0 128 129" fill="none" xmlns="http://www.w3.org/2000/svg">
  <g clip-path="url(#clip0_401_2)">
    <path
      d="M109.347 18.6665C97.3146 6.63625 81.3146 0.00733994 64.2678 0C29.1401 0 0.55325 28.5522 0.539187 63.6469C0.535094 74.865 3.46887 85.8156 9.04519 95.4682L0.00415039 128.451L33.7874 119.6C43.0953 124.672 53.5755 127.344 64.2404 127.349H64.2675H64.2678C99.3898 127.349 127.981 98.7914 127.996 63.6984C128.002 46.6899 121.379 30.6976 109.347 18.6665V18.6665ZM64.2678 116.598H64.2471C54.7409 116.593 45.4188 114.044 37.2877 109.223L35.3526 108.077L15.3049 113.328L20.6574 93.8067L19.3966 91.8053C14.094 83.3816 11.2947 73.6468 11.2987 63.6509C11.3103 34.4814 35.0706 10.7506 64.2878 10.7506C78.4364 10.7565 91.7343 16.2665 101.736 26.2657C111.736 36.2648 117.24 49.5572 117.235 63.6939C117.223 92.8644 93.4619 116.598 64.2678 116.598V116.598Z"
      fill="#E0E0E0" />
    <path
      d="M2.92969 124.791L11.5577 93.3152C6.23478 84.1034 3.43555 73.6522 3.43891 62.9486C3.45286 29.4577 30.7341 2.21057 64.2543 2.21057C80.5233 2.21791 95.7927 8.54369 107.273 20.0247C118.756 31.5057 125.076 46.7663 125.07 62.9961C125.056 96.4879 97.7727 123.737 64.2567 123.737C64.2543 123.737 64.2584 123.737 64.2567 123.737H64.2296C54.0519 123.734 44.0513 121.182 35.1691 116.345L2.92969 124.791V124.791Z"
      fill="url(#paint0_linear_401_2)" />
    <path fill-rule="evenodd" clip-rule="evenodd"
      d="M48.5198 36.6256C47.3407 34.0066 46.0994 33.9542 44.9777 33.9084C44.0602 33.8691 43.0099 33.8715 41.9612 33.8715C40.9117 33.8715 39.2063 34.2655 37.764 35.8392C36.321 37.4129 32.2542 41.2172 32.2542 48.9544C32.2542 56.6925 37.8952 64.1693 38.6815 65.2194C39.4686 66.268 49.5709 82.6535 65.5701 88.9571C78.8667 94.1959 81.5726 93.1538 84.4587 92.8917C87.3448 92.6295 93.7713 89.0882 95.0832 85.4157C96.3951 81.7441 96.3951 78.5968 96.0015 77.9389C95.608 77.2836 94.5585 76.8904 92.9842 76.104C91.41 75.3175 83.6716 71.5124 82.2285 70.9881C80.7854 70.4638 79.7359 70.2017 78.6864 71.7762C77.6369 73.3491 74.622 76.8904 73.7037 77.9389C72.7854 78.9899 71.8671 79.121 70.2928 78.3346C68.7186 77.5457 63.649 75.8868 57.6349 70.5293C52.9556 66.3612 49.7964 61.2134 48.8781 59.639C47.9597 58.0661 48.7796 57.2142 49.5693 56.4302C50.276 55.7256 51.1435 54.5944 51.9306 53.676C52.7161 52.7577 52.9785 52.1023 53.5032 51.0538C54.028 50.0035 53.7656 49.0853 53.372 48.2989C52.9785 47.5125 49.9194 39.7353 48.5198 36.6256V36.6256Z"
      fill="white" />
    <path
      d="M108.827 18.4643C96.9321 6.57209 81.1158 0.0194077 64.2648 0.0119629C29.5403 0.0119629 1.28157 28.2364 1.26761 62.9282C1.26352 74.0177 4.16361 84.8424 9.67591 94.3843L0.73877 126.988L34.1342 118.239C43.3354 123.252 53.6952 125.894 64.2377 125.899H64.2645H64.2648C98.9836 125.899 127.246 97.6692 127.261 62.9789C127.267 46.1659 120.72 30.3573 108.827 18.4643V18.4643ZM64.2648 115.272H64.2443C54.8472 115.267 45.6321 112.746 37.5943 107.981L35.6814 106.848L15.8639 112.04L21.1548 92.7419L19.9086 90.7636C14.6668 82.4365 11.8996 72.8134 11.9037 62.9324C11.9151 34.0977 35.4027 10.6394 64.2845 10.6394C78.2708 10.6451 91.4158 16.0919 101.302 25.9763C111.188 35.8607 116.628 49.0004 116.624 62.975C116.612 91.8104 93.1236 115.272 64.2648 115.272Z"
      fill="white" />
  </g>
  <defs>
    <linearGradient id="paint0_linear_401_2" x1="63.9997" y1="124.791" x2="63.9997" y2="2.21078"
      gradientUnits="userSpaceOnUse">
      <stop stop-color="#20B038" />
      <stop offset="1" stop-color="#60D66A" />
    </linearGradient>
    <clipPath id="clip0_401_2">
      <rect width="128" height="128.451" fill="white" />
    </clipPath>
  </defs>
</svg>