<svg width="32" height="32" viewBox="0 0 32 32" fill="none" xmlns="http://www.w3.org/2000/svg">
<path d="M28.2403 9.81073C28.096 9.26713 27.8113 8.771 27.4149 8.37201C27.0185 7.97302 26.5242 7.68518 25.9816 7.53732C23.9892 7 16 7 16 7C16 7 8.01076 7 6.01837 7.53732C5.47572 7.68518 4.98144 7.97302 4.58503 8.37201C4.18862 8.771 3.90399 9.26713 3.75964 9.81073C3.39136 11.853 3.21264 13.9249 3.22577 16C3.21265 18.0751 3.39136 20.147 3.75964 22.1893C3.90399 22.7329 4.18862 23.229 4.58503 23.628C4.98145 24.027 5.47573 24.3148 6.01838 24.4627C8.01077 25 16 25 16 25C16 25 23.9892 25 25.9816 24.4627C26.5242 24.3148 27.0185 24.027 27.4149 23.628C27.8113 23.229 28.096 22.7329 28.2403 22.1893C28.6086 20.147 28.7873 18.0751 28.7742 16C28.7873 13.9249 28.6086 11.853 28.2403 9.81073V9.81073ZM13.3871 19.7987V12.2013L20.0645 16.0001L13.3871 19.7987Z" fill="white"/>
</svg>
