<svg version="1.2" xmlns="http://www.w3.org/2000/svg" viewBox="0 0 1728 528" width="1728" height="528">
	<title>LOGO AMPROBE-ai</title>
	<style>
		.s0 { fill: #ff3818 } 
		.s1 { fill: #ffffff;stroke: #ffffff;stroke-width: 8 } 
		.s2 { fill: #ffffff } 
	</style>
	<g id="BACKGROUND">
	</g>
	<g id="LOGO">
		<g id="&lt;Group&gt;">
			<path id="&lt;Path&gt;" class="s0" d="m1726.6 528h-1726.6v-529.5h1726.6z"/>
			<g id="&lt;Group&gt;">
				<path id="&lt;Path&gt;" class="s1" d="m405.4 323.7c-17.7 0-38.3 0-57.5 0l-76.7-131.1 29.3-52.4z"/>
				<path id="&lt;Path&gt;" class="s1" d="m216.8 386.3c-19.9-0.1-35.5-0.1-59.5 0l105.9-184.6 29.2 50.5z"/>
				<path id="&lt;Path&gt;" class="s1" d="m412.4 335.9c9.4 17.1 20.6 33.4 30.3 50.4h-209.8l28.3-50.4z"/>
				<path id="&lt;Compound Path&gt;" fill-rule="evenodd" class="s1" d="m514.4 190.8h44.1l59.8 145.5h-36.2l-13.2-33.9h-67.9l-13.6 33.9h-34.9zm46.2 89.1l-18.2-45.8c-2.6-6.3-5.1-13.7-6.5-20h-1.1c-1.2 6.3-3.5 13.9-6 20l-19 45.8z"/>
				<path id="&lt;Compound Path&gt;" class="s1" d="m672.8 241.3c-3.7-9.6-7.6-23.7-8.3-28h-2.1c0.2 5.5 0.5 10.6 0.5 15.7v107.3h-31.9v-145.5h53.8l30.5 80.9c2.9 8.2 6.2 20.7 7.1 25.4h1.4c0.9-4.7 4.2-17.2 7.1-25.4l30.5-80.9h53.8v145.5h-31.8v-107.3c0-5.1 0.2-10.2 0.4-15.7h-2.1c-0.6 4.3-4.6 18.4-8.3 28l-36.7 95h-27.2z"/>
				<path id="&lt;Compound Path&gt;" fill-rule="evenodd" class="s1" d="m837.8 190.8h65.4c39.4 0 55.6 20 55.6 44.6 0 33.9-28.2 46.3-55.4 46.3h-30.9v54.6h-34.7zm57.7 68.4c20.4 0 30.1-8.8 30.1-25.1 0-11.2-6-20.8-22.7-20.8h-30.4v45.9z"/>
				<path id="&lt;Compound Path&gt;" fill-rule="evenodd" class="s1" d="m1036.6 276h-25.9v60.3h-34.6v-145.5h69.1c35.5 0 51.4 17.2 51.4 42.3 0 20.7-11.7 30.5-28.1 36.6l37.1 66.6h-38.7zm0.7-22.5c15.2 0 24.6-5.3 24.6-20.4 0-14.7-8-19.8-21-19.8h-30.2v40.2z"/>
				<path id="&lt;Compound Path&gt;" fill-rule="evenodd" class="s1" d="m1110.9 263.6c0-50.1 31.7-76.3 77.2-76.3 45.4 0 77.1 26.2 77.1 76.3 0 50-31.7 76.2-77.1 76.2-45.5 0-77.2-26.2-77.2-76.2zm117.8 0c0-37-16.2-53-40.6-53-24.5 0-40.7 16-40.7 53 0 36.9 16.2 52.9 40.7 52.9 24.4 0 40.6-16 40.6-52.9z"/>
				<path id="&lt;Compound Path&gt;" fill-rule="evenodd" class="s1" d="m1281.8 190.8h66.9c37.4 0 51.5 17 51.5 36.8 0 14.5-8.5 29.2-29.8 32.9v0.4c16.2 1.6 34.2 13.1 34.2 35.1 0 25.6-18 40.3-56.8 40.3h-66zm61.6 59.6c13 0 23.6-5.7 23.6-19.4 0-11.8-7.2-17.7-20.4-17.7h-31.6v37.1zm1.9 63.4c12.4 0 25.4-4.9 25.4-20.1 0-11-5.3-20.8-24.5-20.8h-31.2v40.9z"/>
				<path id="&lt;Compound Path&gt;" class="s1" d="m1421 190.8h106.6v23.3h-72v35.6h68.1v23.2h-68.1v40.1h74.4v23.3h-109z"/>
				<path id="&lt;Compound Path&gt;" fill-rule="evenodd" class="s2" d="m1547.2 205.2c0-10.7 8.7-18.6 19-18.6 10.2 0 18.9 7.9 18.9 18.6 0 10.9-8.7 18.8-18.9 18.8-10.3 0-19-7.9-19-18.8zm19 15.7c8.5 0 15.1-6.7 15.1-15.7 0-8.8-6.6-15.5-15.1-15.5-8.6 0-15.2 6.7-15.2 15.5 0 9 6.6 15.7 15.2 15.7zm-4-4.8h-3.2v-21.6h8.2c5.1 0 7.6 1.9 7.6 6.1 0 3.9-2.4 5.6-5.6 6l6.1 9.5h-3.6l-5.7-9.4h-3.8zm3.9-12.1c2.8 0 5.3-0.2 5.3-3.5 0-2.7-2.4-3.2-4.7-3.2h-4.5v6.7z"/>
			</g>
		</g>
	</g>
</svg>