<svg width="207" height="62" viewBox="0 0 207 62" fill="none" xmlns="http://www.w3.org/2000/svg">
<path d="M0.699951 61V1.09998H205.8V61H0.699951Z" fill="#FFBE32" stroke="#FFBE32" stroke-width="0.5"/>
<path fill-rule="evenodd" clip-rule="evenodd" d="M162.1 30.8C164.1 30.8 165.8 32.4 165.8 34.5C165.8 36.6 164.1 38.2 162.1 38.2C160.1 38.2 158.4 36.6 158.4 34.5C158.4 32.4 160.1 30.8 162.1 30.8ZM162.1 37.6C163.8 37.6 165.1 36.3 165.1 34.5C165.1 32.7 163.8 31.4 162.1 31.4C160.4 31.4 159.1 32.7 159.1 34.5C159.1 36.3 160.4 37.6 162.1 37.6ZM160.7 32.3H162.3C163.4 32.3 163.8 32.7 163.8 33.6C163.8 34.3 163.4 34.7 162.7 34.7L163.9 36.6H163.2L162.1 34.8H161.3V36.6H160.7V32.3ZM161.3 34.3H162C162.6 34.3 163.2 34.2 163.2 33.5C163.2 33 162.7 32.9 162.2 32.9H161.3V34.3Z" fill="black"/>
<path d="M151.1 38H127.2V19.6H151V23.9H131.7V26.6H151V30.9H131.7V33.6H151.1V38Z" fill="#2C2E35"/>
<path d="M106 38H101.6V19.6H106V26.5V26.6L116.7 19.6H123.7C123.7 19.6 110.9 28.6 110.8 28.9L124.7 38H117.5L106 31V38H101.6V19.6H106" fill="#2C2E35"/>
<path d="M75.9 38H76C71.4 38 71.7 33.7 71.7 33.7V33.6V19.5H76V33.6H93.5999V19.6H98V33.6C98 33.6 98.3999 38 93.5999 38H75.9Z" fill="#2C2E35"/>
<path d="M53.9 33.7H69.7999V37.9H49.4999V19.6H53.9V33.7Z" fill="#2C2E35"/>
<path d="M27.9 31V38H23.4999V19.6H46.2999V23.9H27.9V26.7H46.4V30.9H27.9V31Z" fill="#2C2E35"/>
</svg>
