<svg width="1354" height="388" viewBox="0 0 1354 388" fill="none" xmlns="http://www.w3.org/2000/svg">
<g clip-path="url(#clip0_217_19)">
<path d="M1354 388H1V0H1354V388Z" fill="#0F3A6E"/>
<path d="M221.8 62C221.1 65.6 218.7 76.5 218.2 79C215 79 127 79 127 79L123 97.6C123 97.6 209.4 97.6 214.3 97.6C213.5 101.3 210.9 113.2 210.4 115.7C207.2 115.7 119.1 115.7 119.1 115.7C119.1 115.7 111.9 149.4 111.3 152.4C108.8 152.4 95.9999 152.4 92.2999 152.4C93.2999 147.8 110.9 65.1 111.5 62C114.7 62 217 62 221.8 62V62Z" fill="white"/>
<path d="M252.7 62C251.7 66.7 237.3 134.3 237.3 134.3C237.3 134.3 309.2 134.3 314 134.3C313.2 137.9 310.7 150 310.2 152.4C307 152.4 219.2 152.4 214.4 152.4C215.4 147.8 232.9 65.1 233.6 62C236.1 62 248.9 62 252.7 62V62Z" fill="white"/>
<path d="M568.7 152.4C559.9 152.4 536.5 152.4 535.4 152.4C534.3 151.6 484.5 114.2 484.5 114.2C484.5 114.2 477 149.4 476.4 152.4C473.9 152.4 461.1 152.4 457.4 152.4C458.4 147.8 475.9 65.1 476.6 62C479.2 62 491.9 62 495.7 62C494.7 66.4 487.7 99.5 487.7 99.5C487.7 99.5 555.5 62.5 556.4 62C557.2 62 576.9 62 586.9 62C574.9 68.6 505.7 106.4 505.7 106.4C505.7 106.4 560 146.1 568.7 152.4V152.4Z" fill="white"/>
<path d="M609 79L604.8 98.7C604.8 98.7 696.7 98.7 701.6 98.7C700.8 102.2 698.5 113.3 698 115.7C694.7 115.7 601.2 115.7 601.2 115.7L597 135.4C597 135.4 689 135.4 693.8 135.4C693 139 690.7 150 690.2 152.4C687 152.4 580.2 152.4 575.4 152.4C576.4 147.8 594 65.1 594.6 62C597.8 62 704.6 62 709.4 62C708.6 65.6 706.3 76.5 705.8 79C702.5 79 609 79 609 79V79Z" fill="white"/>
<path d="M464.6 62C463.6 66.7 449.7 132 449.7 132C449.6 132.7 446.2 150 428.4 152.4C428 152.4 334.7 152.4 334.4 152.4C329.5 151.8 326 149.9 324 146.8C322.3 144.2 321.8 141.1 321.8 138.5C321.8 135.4 322.5 132.9 322.5 132.9L322.6 132.8C322.6 132.8 336.9 65.2 337.6 62C340.1 62 352.9 62 356.7 62C355.7 66.7 341.1 135.4 341.1 135.4H429.9C429.9 135.4 444.8 65.2 445.4 62C448 62 460.8 62 464.6 62V62Z" fill="white"/>
<path d="M532.1 199.9C532.9 196.2 534 191.3 534.7 185.9H550.5L547.7 200.5H548C553.4 191.8 563.3 183.7 579.4 183.7C597.2 183.7 610 193.1 610 212.6C610 218 608.9 224.1 607.9 229.3L597.8 277.8H580.8L592.2 222.9C592.7 219.8 593.1 216.2 593.1 214.2C593.1 204.6 586.8 197.4 576.3 197.4C555.4 197.4 545.1 220.1 542.8 231.5L533 277.8H516.1L532.1 199.9Z" fill="white"/>
<path fill-rule="evenodd" clip-rule="evenodd" d="M686 276.2C677.2 278.4 668 280 658.8 280C636.4 280 616.4 271 616.4 238.5C616.4 213.1 634.3 183.7 666.7 183.7C688.9 183.7 701.3 197.1 701.3 218.9C701.3 225 700.6 230.2 699.7 235.7H635C634.6 237.6 634.5 239.4 634.5 241.4C634.5 260.7 646.3 266.3 662.7 266.3C671.2 266.3 680.4 264.1 688.7 260.7L686 276.2ZM683.8 223.1C684.2 220.4 684.4 218.2 684.4 216C684.4 205.2 677.7 197.5 664.9 197.5C651 197.5 640.4 209.5 636.8 223.1H683.8Z" fill="white"/>
<path d="M707.5 185.9H728L732.5 164.6L748.9 164.3L745 185.9H770.2L767.5 199.6H742.1L733.6 239.1C732.7 243.2 730.9 253.1 730.9 256.4C730.9 262.9 734.5 266.3 743.2 266.3C746.8 266.3 751.8 265.4 755.1 264L752.5 278C748.7 279.5 740.8 280 736 280C719.9 280 714 269.4 714 259.6C714 253.7 716.1 243.1 717.2 238L725.1 199.6H704.9L707.5 185.9Z" fill="white"/>
<path d="M779.3 185.9H796.3L802.6 259.8H802.9L842.2 185.9H862.8L869.1 259.8H869.4L907.7 185.9H926.4L876.1 277.8H856.6L849.4 203.9H849.1L809.4 277.8H789.4L779.3 185.9Z" fill="white"/>
<path fill-rule="evenodd" clip-rule="evenodd" d="M969.6 183.7C994.3 183.7 1010.3 198.7 1010.3 223.9C1010.3 255.1 991.9 280 959 280C933.7 280 917.1 266.3 917.1 239.1C917.1 208.4 935.9 183.7 969.6 183.7V183.7ZM958.8 266.3C977.9 266.3 992.3 244.7 992.3 223.9C992.3 210.2 984.2 197.4 968.9 197.4C946.3 197.4 935.1 221.2 935.1 240.3C935.1 255 942.7 266.3 958.8 266.3Z" fill="white"/>
<path d="M1026.9 199.9C1027.6 196.2 1028.7 191.3 1029.5 185.9H1045.3L1042.4 200.5H1042.8C1048.2 191.8 1058.1 183.7 1074.2 183.7C1075.8 183.7 1078.7 184.1 1081.9 185.4L1078.1 200.3C1074.9 199.1 1072.2 198.5 1070.9 198.5C1050 198.5 1039.7 221.2 1037.4 232.6L1027.8 277.8H1010.9L1026.9 199.9Z" fill="white"/>
<path d="M1097.3 164.3H1113.5L1101.8 221.9H1102.1L1144.9 185.9H1169.7L1117.6 226.6L1155.1 277.8H1133.5L1100.2 230.6L1090.2 277.8H1073.3L1097.3 164.3Z" fill="white"/>
<path d="M1230.1 202.1C1225.4 199.8 1218 197.4 1211.7 197.4C1204.3 197.4 1194.6 199.4 1194.6 208.6C1194.6 224.3 1226 225 1226 250.6C1226 272.8 1205.6 280 1191.2 280C1176.6 280 1171.2 278 1164.3 275.7L1167.6 261.1C1174.2 263.8 1181.2 266.3 1188.6 266.3C1197.8 266.3 1207.9 262.5 1207.9 252.1C1207.9 236.4 1176.6 234 1176.6 210.8C1176.6 191.3 1196 183.7 1211.2 183.7C1219.3 183.7 1227.6 185.7 1235.2 188.8L1230.1 202.1Z" fill="white"/>
<path d="M755.5 314.2C755.5 320.6 750.4 325.7 744 325.7C737.6 325.7 732.5 320.6 732.5 314.2C732.5 307.9 737.6 302.7 744 302.7C750.4 302.7 755.5 307.9 755.5 314.2Z" fill="white"/>
<path d="M694.6 314.2C694.6 320.6 689.4 325.7 683.1 325.7C676.7 325.7 671.6 320.6 671.6 314.2C671.6 307.9 676.7 302.7 683.1 302.7C689.4 302.7 694.6 307.9 694.6 314.2Z" fill="white"/>
<path d="M619.4 314.2C619.4 320.6 614.3 325.7 607.9 325.7C601.6 325.7 596.4 320.6 596.4 314.2C596.4 307.9 601.6 302.7 607.9 302.7C614.3 302.7 619.4 307.9 619.4 314.2Z" fill="white"/>
<path d="M527.5 315C527.1 321.4 521.5 326.1 515.2 325.6C508.9 325.2 504.1 319.6 504.6 313.3C505.1 307 510.6 302.2 516.9 302.7C523.3 303.2 528 308.7 527.5 315Z" fill="white"/>
<path d="M410.2 314.2C410.2 320.6 405 325.7 398.7 325.7C392.3 325.7 387.2 320.6 387.2 314.2C387.2 307.8 392.3 302.7 398.7 302.7C405 302.7 410.2 307.8 410.2 314.2Z" fill="white"/>
<path fill-rule="evenodd" clip-rule="evenodd" d="M1246.6 258.4H1249.6C1251.8 258.4 1255.4 258.4 1255.4 262.2C1255.4 264.3 1253.7 266 1251.6 266.4C1252.8 267.1 1253.1 269.4 1253.5 270.6L1254.3 273.9H1251.9L1251 269.8C1250.4 267.3 1250.1 267 1248.9 267H1246.9L1245.5 273.9H1243.3L1246.6 258.4ZM1247.4 265H1249.1C1250.7 265 1253 264.5 1253 262.5C1253 260.8 1252.1 260.3 1250.4 260.3H1248.4L1247.4 265Z" fill="white"/>
<path fill-rule="evenodd" clip-rule="evenodd" d="M1249.4 253.2C1256.8 253.2 1262.8 259.2 1262.8 266.6C1262.8 274 1256.8 280 1249.4 280C1241.9 280 1235.9 274 1235.9 266.6C1235.9 259.2 1241.9 253.2 1249.4 253.2ZM1249.4 278C1255.6 278 1260.8 272.9 1260.8 266.6C1260.8 260.3 1255.6 255.2 1249.4 255.2C1243.1 255.2 1237.9 260.3 1237.9 266.6C1237.9 272.9 1243.1 278 1249.4 278Z" fill="white"/>
</g>
<defs>
<clipPath id="clip0_217_19">
<rect width="1354" height="388" fill="white"/>
</clipPath>
</defs>
</svg>
