<svg width="182" height="57" viewBox="0 0 182 57" fill="none" xmlns="http://www.w3.org/2000/svg">
<g clip-path="url(#clip0_311_2)">
<path d="M41.025 55.02L47.491 55.069L54.2 24.669L47.234 26.769L41.025 55.02Z" fill="#FFFFFF"/>
<path d="M56.136 14.343C55.8074 13.9382 55.3902 13.6144 54.9164 13.3966C54.4427 13.1788 53.9252 13.0729 53.404 13.087C52.2401 13.1114 51.1174 13.5227 50.2133 14.2561C49.3091 14.9895 48.675 16.0031 48.411 17.137C48.2823 17.6499 48.2715 18.1853 48.3794 18.703C48.4873 19.2207 48.7111 19.7072 49.034 20.126C49.3648 20.5248 49.7816 20.8434 50.2533 21.0579C50.7249 21.2723 51.2391 21.377 51.757 21.364C52.9077 21.3208 54.0126 20.902 54.9027 20.1715C55.7928 19.441 56.4192 18.4391 56.686 17.319C56.8286 16.814 56.8532 16.2829 56.7578 15.7669C56.6624 15.2509 56.4497 14.7637 56.136 14.343V14.343Z" fill="#FFFFFF"/>
<path d="M82.987 11.414L79.619 26.714C77.4472 25.696 75.0814 25.1585 72.683 25.138C64.861 25.078 58.883 32.944 57.224 40.375C56.378 44.189 56.411 49.438 59.03 52.726C59.7869 53.6626 60.7482 54.4133 61.8403 54.9207C62.9323 55.4281 64.1261 55.6786 65.33 55.653V55.718H65.612C70.42 55.753 75.312 54.095 80.558 50.654L80.652 50.592L89.829 9.30501L82.987 11.414ZM63.978 40.733C65.142 35.606 68.431 30.107 72.905 30.133H73.153C75.0924 30.1718 76.9612 30.8682 78.453 32.108L74.783 48.865C72.6703 50.0961 70.3024 50.8239 67.863 50.992C67.2951 51.0093 66.7311 50.8937 66.2158 50.6545C65.7005 50.4152 65.2483 50.0589 64.895 49.614C63.226 47.518 63.359 43.518 63.979 40.733H63.978Z" fill="#FFFFFF"/>
<path d="M86.726 55.371L93.193 55.42L99.902 25.02L92.933 27.12L86.726 55.371Z" fill="#FFFFFF"/>
<path d="M99.106 13.435C97.9419 13.4592 96.819 13.8706 95.9148 14.6043C95.0106 15.3379 94.3766 16.3518 94.113 17.486C93.9845 17.9988 93.9735 18.534 94.0811 19.0516C94.1886 19.5692 94.4118 20.0558 94.734 20.475C95.0654 20.8738 95.4829 21.1923 95.955 21.4067C96.4271 21.6211 96.9416 21.7258 97.46 21.713C98.6103 21.6705 99.715 21.2522 100.605 20.5222C101.495 19.7922 102.121 18.7907 102.388 17.671C102.542 17.1689 102.573 16.6372 102.479 16.1206C102.384 15.6039 102.167 15.1176 101.845 14.7025C101.524 14.2874 101.107 13.9558 100.63 13.7355C100.153 13.5153 99.6306 13.4129 99.106 13.437V13.435Z" fill="#FFFFFF"/>
<path d="M116.424 16.591L109.519 18.836L107.896 26.165L104.856 26.141L103.816 31.004L106.853 31.028L103.124 48C102.848 48.9129 102.784 49.8769 102.938 50.8182C103.091 51.7594 103.458 52.6532 104.01 53.431C105.301 55.054 107.642 55.931 110.786 55.958C111.365 55.958 111.976 55.936 112.604 55.884L112.812 55.866L113.712 51.734L113.384 51.712C111.25 51.582 110.177 51.269 109.694 50.624C109.48 50.2311 109.352 49.7974 109.319 49.3514C109.285 48.9055 109.347 48.4574 109.499 48.037L113.189 31.065L118.189 31.102L119.3 26.241L114.3 26.201L116.424 16.591Z" fill="#FFFFFF"/>
<path d="M136.039 26.06C127.417 25.995 122.531 33.953 120.839 41.429C119.821 46.329 120.739 50.874 123.287 53.599C124.261 54.5017 125.408 55.1975 126.659 55.6444C127.909 56.0913 129.237 56.28 130.563 56.199C132.394 56.1965 134.217 55.9589 135.987 55.492L136.08 55.485C138.208 54.92 140.243 54.0518 142.124 52.907L142.317 52.799L141.334 49.223L141.201 48.923L140.901 49.047C137.546 50.447 135.33 51.37 132.489 51.408H132.299C131.544 51.4309 130.794 51.2754 130.109 50.9542C129.425 50.6329 128.827 50.1549 128.362 49.559C126.995 47.775 126.706 44.941 127.547 41.559L144.208 41.684L144.252 41.455C145.465 35.388 145.081 31.244 143.083 28.788C142.191 27.8315 141.093 27.0893 139.874 26.6168C138.654 26.1444 137.343 25.9541 136.039 26.06V26.06ZM135.301 30.735C135.769 30.716 136.236 30.8037 136.665 30.9917C137.094 31.1797 137.475 31.463 137.778 31.82C138.266 32.5854 138.592 33.4425 138.737 34.3386C138.881 35.2347 138.841 36.1509 138.619 37.031L128.749 36.956C129.655 34.456 131.621 30.707 135.309 30.735H135.301Z" fill="#FFFFFF"/>
<path d="M164.798 26.07C162.257 26.0439 159.759 26.7249 157.583 28.037C152.865 31.118 149.553 35.9345 148.363 41.442C147.33 46.017 148.054 50.442 150.282 53.271C151.092 54.2896 152.126 55.1081 153.303 55.663C154.48 56.2179 155.77 56.4944 157.071 56.471V56.471C161.183 56.4434 165.215 55.3261 168.755 53.233L168.947 53.127L167.886 49.04L167.018 49.419C164.731 50.6396 162.206 51.3484 159.618 51.496H159.398C158.727 51.5013 158.064 51.3511 157.461 51.0572C156.858 50.7633 156.331 50.3337 155.922 49.802C155.165 48.595 154.669 47.243 154.466 45.8329C154.262 44.4228 154.356 42.9857 154.741 41.614C155.888 36.635 159.365 31.227 163.553 31.014C165.768 31.0101 167.942 31.6058 169.846 32.738L170.059 32.853L173.059 28.907L172.829 28.737C170.502 27.0193 167.691 26.0841 164.799 26.066L164.798 26.07Z" fill="#FFFFFF"/>
<path d="M47.252 0L44.79 4.274L22.505 43.416L17.982 10.905L0 10.768L1.783 16.639L11.9 16.716L16.956 55.702L22.147 53.947L49.975 4.731L180.12 5.72L182 1.025L47.252 0Z" fill="#FFFFFF"/>
</g>
<defs>
<clipPath id="clip0_311_2">
<rect width="182" height="56.477" fill="white"/>
</clipPath>
</defs>
</svg>
